<svg width="187" height="42" viewBox="0 0 187 42" fill="none" xmlns="http://www.w3.org/2000/svg">
<path fill-rule="evenodd" clip-rule="evenodd" d="M33.8717 9.31314V17.3708C33.8717 17.5298 33.8717 17.7046 33.8876 17.8794H33.8717C33.8717 19.4687 33.6969 20.1839 31.8692 20.4223L31.8851 20.9626L35.604 20.9468V20.9309L36.3192 20.9468L38.9257 20.9626L38.9575 20.4223C37.2092 20.1998 36.9708 19.5323 36.9391 18.1178C36.9391 17.9112 36.9549 17.6887 36.9549 17.4662V6.45241C36.9391 3.92544 38.2423 4.38633 40.515 4.38633C44.6471 4.38633 44.0591 3.73472 44.0591 11.9037C44.0591 13.7314 44.0591 15.5432 44.0591 17.3708C44.0591 17.943 44.1227 18.6582 43.9637 19.2462C43.7571 19.9137 43.2803 20.2792 42.0884 20.4223L42.1043 20.9626L45.9503 20.9468L49.1448 20.9626L49.1607 20.4223C47.0946 20.168 47.1423 19.278 47.1423 17.2596V6.99277C47.1423 4.10026 47.5078 4.4499 49.1607 3.89365V3.41686L35.6676 3.40097H35.0637V3.41686L31.8851 3.40097L31.8533 3.92544C33.9194 4.19562 33.8717 5.06973 33.8717 7.08813V9.31314ZM29.978 17.9589C29.5171 17.7682 29.2946 17.9907 29.0562 18.2132C25.4962 21.6937 19.0754 20.8991 19.5522 11.1567C19.9336 3.52811 24.9081 2.6699 27.0696 5.45116C28.0549 6.72259 28.1821 7.53313 28.786 9.20189L29.5488 9.18599L29.5965 3.43276C28.8813 3.30561 28.9926 3.52811 28.7383 3.76651C27.6099 4.92669 27.1331 2.60633 23.2076 3.08311C18.2331 3.70294 15.6584 8.75688 16.3418 14.1605C17.3431 22.1705 25.6551 22.5678 28.786 19.7548C29.1833 19.3892 30.1051 18.6105 29.978 17.9589ZM13.7831 17.8953C13.1791 17.7682 13.195 18.0383 12.2097 18.8012C11.8282 19.1032 11.0813 19.5323 10.4773 19.7389C5.08965 21.5666 3.11892 16.2107 3.37321 11.1567C3.77053 3.44865 8.7927 2.68579 10.8906 5.48294C12.2574 7.31063 12.0031 7.85099 12.6229 9.20189L13.3857 9.18599L13.4016 3.43276C12.3845 3.3374 12.5275 4.11615 11.9554 4.14794C11.6534 4.14794 9.93699 2.73347 7.07626 3.08311C3.89768 3.46454 1.52963 5.84848 0.576056 8.67742C-0.838414 12.9049 0.194626 19.421 5.43929 20.9785C9.96877 22.3135 13.9738 19.5164 13.7831 17.8953Z" fill="white"/>
<path fill-rule="evenodd" clip-rule="evenodd" d="M94.9169 28.194C94.8215 26.7159 94.901 25.0154 94.901 23.5056C94.901 22.5997 94.7738 21.4713 95.9499 21.0421C96.1565 20.9627 96.3155 20.9627 96.4585 20.915C96.983 20.7402 96.6969 21.0898 96.7922 20.5018C96.6333 20.4064 96.8876 20.4223 96.3949 20.3429L90.0695 20.3588C89.8311 20.4223 89.9106 20.4223 89.7994 20.5018C89.8788 21.1216 89.5928 20.7402 90.149 20.915C91.5794 21.3759 91.8178 21.4713 91.8178 23.8234V34.3127C91.8178 35.6477 92.0085 36.951 90.3238 37.3165C89.9106 37.396 90.0378 37.2847 89.7676 37.5231L89.7994 37.8886L96.7764 37.9045V37.3801C94.7421 37.094 94.901 36.1563 94.901 34.2015C94.901 32.5327 94.8692 30.8322 94.901 29.1634C96.824 29.2111 97.428 30.9117 98.8901 33.089C99.9708 34.6942 101.004 36.3152 102.116 37.8886L106.964 37.9045L106.996 37.4119C105.676 36.9669 105.613 37.3642 104.325 35.6795C103.467 34.567 100.384 29.7515 99.7801 29.227L98.3974 28.3211C100.813 26.1597 100.638 24.2525 102.116 22.9175C103.324 21.8368 104.357 23.585 105.549 22.7109C106.566 21.9639 106.36 20.2316 104.85 20.0091C102.116 19.6277 100.829 22.4089 99.939 24.1731C99.5258 24.9995 98.8265 26.4298 98.318 27.0338C97.4598 28.0986 96.6969 28.1781 94.9169 28.194ZM171.33 37.9045H171.266H171.219H171.171L168.581 37.8886L168.596 37.4119C169.55 37.0304 169.931 36.9669 169.931 35.6954V35.0756H169.916V29.5449C169.916 28.7343 170.202 27.2245 169.455 26.8907C169.153 26.7477 166.816 26.7318 166.435 26.8431C165.656 27.0497 165.783 28.4482 165.704 29.3224C165.481 32.0877 165.672 38.874 161.81 38.0635C160.443 37.7774 160.65 36.4901 161.031 36.0927C161.731 35.3617 162.811 36.2835 163.543 35.7113C164.417 35.012 164.544 31.8175 164.655 30.4984C164.782 28.9409 165.259 27.0815 164.242 26.5411C163.59 26.1915 163.463 26.6523 163.495 25.81H174.111C174.207 26.8907 173.682 26.0007 173.062 26.8272C172.76 27.2245 172.776 27.7807 172.776 28.3688V34.5193V35.6954C172.776 36.9669 173.142 37.0304 174.111 37.4119L174.127 37.8886L171.521 37.9045H171.473H171.425H171.362V37.8727H171.33V37.9045ZM175.319 29.6879C176.082 29.7356 175.844 29.815 176.034 28.9409C176.225 28.0509 176.75 27.1927 177.655 26.9225C179.96 26.2232 179.737 27.6536 179.737 29.4336C179.737 30.0534 179.817 32.6122 179.769 34.5193L179.753 34.9802C179.753 35.1074 179.753 35.2345 179.737 35.3458H179.753L179.737 35.6954C179.737 36.9669 179.372 37.0304 178.402 37.4119V37.8886L181.184 37.9045H181.247H181.295H181.327H181.343H181.374H181.406H181.486L183.933 37.8886L183.917 37.4119C182.964 37.0304 182.582 36.9669 182.582 35.6954V35.3458C182.582 35.2504 182.582 35.1392 182.582 35.0438L182.566 34.5193C182.535 32.644 182.582 30.1488 182.582 29.5449C182.582 27.8602 182.233 26.3504 184.489 26.859C186.095 27.2404 186.19 28.7979 186.46 29.6879H186.953L187 25.8418L175.335 25.81L175.319 29.6879ZM146.41 35.3935C145.615 35.3458 145.52 36.3947 143.581 36.9192C139.687 37.9681 138.003 32.8665 139.258 28.9568C140.148 26.1915 142.437 26.1597 143.215 26.8113C143.772 27.2881 143.454 27.9397 143.406 28.639C143.343 30.2441 145.043 30.6256 145.885 29.5925C146.855 28.4165 145.822 27.0497 145.139 26.4934C142.341 24.2207 134.856 25.9054 136.032 33.3592C136.429 35.902 137.939 37.5549 140.339 38.0158C143.645 38.6515 146.585 36.6013 146.41 35.3935ZM112.622 26.6206C115.244 26.0484 115.848 29.1793 115.911 31.4202C115.975 33.7088 115.609 36.792 113.527 37.1417C111.001 37.5708 110.333 34.6624 110.269 32.3897C110.206 29.9899 110.476 27.0974 112.622 26.6206ZM112.018 25.6829C110.047 26.0325 109.221 26.7795 108.346 28.035C106.233 31.0865 106.916 39.1442 114.147 38.0794C117.485 37.6026 119.201 34.6465 118.804 30.7686C118.454 27.2722 115.927 24.9995 112.018 25.6829ZM155.771 31.2613C155.85 32.04 155.803 32.9777 155.803 33.7724C155.803 34.7101 155.723 35.1392 155.231 35.6477C154.579 36.3152 152.656 37.2688 151.702 36.1722C150.177 34.424 152.274 31.3725 155.771 31.2613ZM155.787 30.419C154.007 30.8799 152.592 30.9117 150.908 31.6427C149.541 32.2467 148.238 33.2479 148.301 35.171C148.349 36.9192 149.747 38.0476 151.432 38.1111C152.751 38.1747 153.784 37.7297 154.801 37.0304C155.151 36.8079 155.389 36.5536 155.723 36.3311C156.232 36.9351 155.898 38.3495 158.059 38.1111C158.6 38.0476 159.188 37.7774 159.553 37.5072C160.189 37.0145 160.682 36.061 160.046 36.2835C159.808 36.3629 158.647 38.0158 158.647 34.8372C158.647 32.8506 158.886 28.9727 158.187 27.6536C157.074 25.5081 153.164 24.9677 150.59 26.1915C149.668 26.6206 148.285 27.8443 149.048 29.3065C149.716 30.6097 151.957 30.2759 151.655 28.3211C151.512 27.4947 151.225 27.1132 152.115 26.7477C152.799 26.4616 153.784 26.4616 154.436 26.6841C155.866 27.1927 155.866 28.639 155.787 30.419ZM122.443 28.5118V28.035C122.443 26.7795 122.078 26.7 121.108 26.3186V25.8418L124.732 25.8259H126.639V26.3186C125.67 26.6841 125.304 26.7636 125.304 28.0191V28.1463L125.272 28.5595C125.272 29.1793 125.288 30.1806 125.304 30.7527L130.008 30.7368C130.024 30.2441 130.04 28.9727 130.04 28.3211C129.993 27.2881 130.183 26.9066 128.689 26.3186L128.673 25.8418L131.518 25.8259H131.566H131.614L134.22 25.8418L134.204 26.3186C133.235 26.7 132.869 26.7636 132.869 28.035V28.6231V34.2174V34.8372V35.7113C132.869 36.9669 133.235 37.0463 134.204 37.4119L134.22 37.8886L131.614 37.9045H131.566H131.518L128.673 37.8886L128.689 37.4119C129.659 37.0463 130.024 36.9669 130.024 35.7113V35.5683V35.4729L130.072 34.2492C130.072 33.2638 130.024 32.2625 130.024 31.7222H125.32L125.304 35.6001V35.7113C125.304 36.9669 125.67 37.0463 126.639 37.4277V37.9045H124.732L121.108 37.8886V37.4119C122.078 37.0304 122.443 36.951 122.443 35.6954V28.6231V28.5118Z" fill="white"/>
<path fill-rule="evenodd" clip-rule="evenodd" d="M59.3954 0H79.5953C82.5991 0 85.0784 2.4634 85.0784 5.48306V35.7432C85.0784 38.7628 82.5991 41.2262 79.5953 41.2262H59.3954C56.3758 41.2262 53.8965 38.7628 53.8965 35.7432V5.48306C53.8965 2.4634 56.3758 0 59.3954 0Z" fill="url(#paint0_linear)"/>
<path fill-rule="evenodd" clip-rule="evenodd" d="M59.3954 0H79.5953C80.8509 0 82.0269 0.429109 82.9646 1.16018C80.7396 17.7365 69.3126 31.3726 54.0077 36.808C53.9442 36.4584 53.8965 36.1087 53.8965 35.7432V5.48306C53.8965 2.4634 56.3758 0 59.3954 0Z" fill="url(#paint1_linear)"/>
<path fill-rule="evenodd" clip-rule="evenodd" d="M71.4258 16.9896C72.8562 14.4468 76.9565 7.86709 75.5262 5.62619C72.2522 0.47688 55.7713 20.3907 58.2506 25.8738C59.1724 27.8922 61.2384 27.7015 64.8302 27.7332C68.422 27.7809 74.3024 26.7161 74.3024 26.7161C74.3024 26.7161 71.7754 28.4643 70.3292 28.9252C68.8829 29.3861 65.5136 30.1649 61.3338 29.3384C54.5475 27.9875 55.6123 21.3443 58.7909 16.2427C60.9842 12.7144 65.9745 7.53334 70.0272 5.08583C74.0799 2.63832 75.0653 3.41707 75.6056 3.63957C78.2121 4.75208 77.3856 7.12012 76.448 9.37691C75.3196 12.031 73.6349 14.7328 71.7437 17.3234C71.6642 17.4346 71.0285 17.7048 71.4258 16.9896Z" fill="white"/>
<path fill-rule="evenodd" clip-rule="evenodd" d="M74.7647 26.335C75.3209 28.2421 74.9872 29.3864 74.6534 30.8009C74.3038 32.2153 72.6191 35.4575 72.6191 35.4575L74.0018 35.537C74.8918 33.2643 76.942 27.3362 80.216 27.7653C81.106 27.8925 81.249 28.2739 80.947 29.3069C80.6451 30.34 77.4347 35.4257 77.4347 35.4257C80.6451 35.68 82.7111 34.3927 83.1879 33.455C82.0913 33.8841 80.4226 34.4721 79.2147 34.202C79.8663 33.1689 84.4435 27.7494 81.5192 26.9071C78.6426 26.0807 77.2599 28.0037 75.909 29.5771C76.2109 28.4328 76.3222 27.4634 74.7647 26.335Z" fill="white"/>
<path fill-rule="evenodd" clip-rule="evenodd" d="M69.4875 27.7968C70.0755 26.6684 72.7455 22.5839 71.9032 21.2489C70.012 18.277 61.1278 29.7357 62.3516 32.4375C62.8602 33.5659 64.0044 33.4547 65.9752 33.4706C67.9618 33.5024 71.2198 32.9143 71.2198 32.9143C71.2198 32.9143 69.8213 33.8838 69.0266 34.1381C68.2161 34.3924 66.3566 34.8215 64.0521 34.3606C60.3014 33.6136 60.8894 29.9424 62.6535 27.1293C63.8614 25.1745 66.6109 22.3138 68.8518 20.947C71.0927 19.5961 71.6489 20.0252 71.935 20.1523C73.3813 20.7721 72.9363 22.0754 72.4118 23.315C71.7602 24.8248 71.0291 26.0804 69.9325 27.5743C69.8054 27.765 69.6305 27.6061 69.4875 27.7968Z" fill="white"/>
<path fill-rule="evenodd" clip-rule="evenodd" d="M59.3795 0H79.5953C82.5991 0 85.0784 2.4634 85.0784 5.48306V35.7432C85.0784 38.7628 82.5991 41.2262 79.5953 41.2262H59.3795C56.3758 41.2262 53.8965 38.7628 53.8965 35.7432V5.48306C53.8965 2.4634 56.3758 0 59.3795 0ZM59.3795 0.65161H79.5953C82.2494 0.65161 84.4268 2.82894 84.4268 5.48306V35.7432C84.4268 38.4132 82.2494 40.5905 79.5953 40.5905H59.3795C56.7254 40.5905 54.5481 38.4132 54.5481 35.7432V5.48306C54.5481 2.82894 56.7254 0.65161 59.3795 0.65161Z" fill="#3387DC"/>
<defs>
<linearGradient id="paint0_linear" x1="52.4725" y1="37.6319" x2="86.504" y2="3.60038" gradientUnits="userSpaceOnUse">
<stop stop-color="#107AEC"/>
<stop offset="1" stop-color="#04478F"/>
</linearGradient>
<linearGradient id="paint1_linear" x1="65.7057" y1="2.95004" x2="71.1552" y2="33.8553" gradientUnits="userSpaceOnUse">
<stop stop-color="#1667C1"/>
<stop offset="1" stop-color="#1F7BE0"/>
</linearGradient>
</defs>
</svg>
