<svg width="97" height="42" viewBox="0 0 97 42" fill="none" xmlns="http://www.w3.org/2000/svg">
<path d="M14.0438 15.7455H7.88287V27.8945H14.0438V15.7455ZM5.42738 32.9773C0.818495 32.9773 0 29.8751 0 27.2903V16.09C0 13.6355 0.861914 10.6627 5.4708 10.6627H13.9578V0.667969H21.7539V32.9773H5.42738Z" fill="#173551"/>
<path d="M38.6922 15.7025H32.6182V27.894H38.6922V15.7025ZM41.1043 32.9777H32.6607V41.1192H24.8203V10.6631H41.1911C45.1109 10.6631 46.6185 12.6872 46.6185 16.1339V27.5078C46.6185 31.1255 45.0674 32.9777 41.1043 32.9777Z" fill="#173551"/>
<path d="M48.9619 32.9772V25.3955H56.6305V32.9772H48.9619Z" fill="#173551"/>
<path d="M66.9751 15.7459V32.9768H59.0479V16.0905C59.0479 12.7731 60.5999 10.6631 64.5205 10.6631H74.3849V15.7459H66.9751Z" fill="#173551"/>
<path d="M91.616 32.9777C91.616 32.9777 87.093 33.0645 85.7138 33.0645C84.5507 33.0645 80.6735 32.9777 80.6735 32.9777C76.7972 32.8918 75.2461 31.1255 75.2461 27.2917V10.6631H83.128V27.8949H89.1162V10.6631H97V27.2917C97 30.8668 95.1911 32.9352 91.616 32.9777Z" fill="#173551"/>
</svg>
