<svg width="42" height="47" viewBox="0 0 42 47" fill="none" xmlns="http://www.w3.org/2000/svg">
<path d="M0 0H42V41.2683L21 47L0 41.2683V0Z" fill="#D6EDF4"/>
<path fill-rule="evenodd" clip-rule="evenodd" d="M14.024 6H28.8057C31.0038 6 32.8181 7.80265 32.8181 10.0124V32.1559C32.8181 34.3656 31.0038 36.1683 28.8057 36.1683H14.024C11.8143 36.1683 10 34.3656 10 32.1559V10.0124C10 7.80265 11.8143 6 14.024 6Z" fill="url(#paint0_linear)"/>
<path fill-rule="evenodd" clip-rule="evenodd" d="M14.024 6H28.8057C29.7245 6 30.5851 6.31401 31.2713 6.84899C29.6431 18.9791 21.2811 28.9577 10.0814 32.9351C10.0349 32.6793 10 32.4234 10 32.1559V10.0124C10 7.80265 11.8143 6 14.024 6Z" fill="url(#paint1_linear)"/>
<path fill-rule="evenodd" clip-rule="evenodd" d="M22.828 18.4319C23.8747 16.5711 26.8753 11.7562 25.8286 10.1164C23.4328 6.34828 11.3725 20.9207 13.1867 24.9331C13.8613 26.4101 15.3732 26.2705 18.0016 26.2938C20.6299 26.3287 24.9331 25.5494 24.9331 25.5494C24.9331 25.5494 23.0839 26.8287 22.0255 27.166C20.9672 27.5033 18.5017 28.0732 15.443 27.4684C10.4769 26.4798 11.2562 21.6185 13.5822 17.8853C15.1871 15.3034 18.8389 11.512 21.8046 9.72099C24.7702 7.92997 25.4913 8.49984 25.8867 8.66266C27.794 9.47676 27.1893 11.2096 26.5031 12.8611C25.6774 14.8033 24.4446 16.7804 23.0606 18.6761C23.0025 18.7575 22.5373 18.9552 22.828 18.4319Z" fill="white"/>
<path fill-rule="evenodd" clip-rule="evenodd" d="M25.2702 25.272C25.6773 26.6676 25.4331 27.5049 25.1888 28.54C24.933 29.5751 23.7002 31.9476 23.7002 31.9476L24.712 32.0058C25.3633 30.3427 26.8636 26.0047 29.2593 26.3187C29.9106 26.4117 30.0153 26.6908 29.7943 27.4468C29.5734 28.2027 27.2241 31.9243 27.2241 31.9243C29.5734 32.1104 31.0853 31.1684 31.4342 30.4822C30.6317 30.7962 29.4105 31.2265 28.5267 31.0288C29.0035 30.2729 32.3529 26.307 30.213 25.6907C28.108 25.0859 27.0962 26.4931 26.1076 27.6445C26.3286 26.8071 26.41 26.0977 25.2702 25.272Z" fill="white"/>
<path fill-rule="evenodd" clip-rule="evenodd" d="M21.4091 26.341C21.8394 25.5153 23.7932 22.5263 23.1769 21.5494C21.7929 19.3746 15.2917 27.7599 16.1872 29.737C16.5594 30.5627 17.3967 30.4813 18.8389 30.4929C20.2926 30.5162 22.6768 30.0859 22.6768 30.0859C22.6768 30.0859 21.6533 30.7953 21.0718 30.9814C20.4787 31.1675 19.118 31.4815 17.4316 31.1442C14.6869 30.5976 15.1172 27.911 16.4082 25.8525C17.2921 24.422 19.3041 22.3286 20.9439 21.3285C22.5837 20.3399 22.9908 20.6539 23.2001 20.747C24.2584 21.2005 23.9328 22.1542 23.549 23.0613C23.0722 24.1662 22.5372 25.085 21.7347 26.1782C21.6417 26.3177 21.5138 26.2014 21.4091 26.341Z" fill="white"/>
<path fill-rule="evenodd" clip-rule="evenodd" d="M14.0124 6H28.8057C31.0038 6 32.8181 7.80265 32.8181 10.0124V32.1559C32.8181 34.3656 31.0038 36.1683 28.8057 36.1683H14.0124C11.8143 36.1683 10 34.3656 10 32.1559V10.0124C10 7.80265 11.8143 6 14.0124 6ZM14.0124 6.47683H28.8057C30.748 6.47683 32.3413 8.07014 32.3413 10.0124V32.1559C32.3413 34.1098 30.748 35.7031 28.8057 35.7031H14.0124C12.0701 35.7031 10.4768 34.1098 10.4768 32.1559V10.0124C10.4768 8.07014 12.0701 6.47683 14.0124 6.47683Z" fill="#3387DC"/>
<defs>
<linearGradient id="paint0_linear" x1="8.95795" y1="33.538" x2="33.8613" y2="8.63466" gradientUnits="userSpaceOnUse">
<stop stop-color="#107AEC"/>
<stop offset="1" stop-color="#04478F"/>
</linearGradient>
<linearGradient id="paint1_linear" x1="18.6417" y1="8.15876" x2="22.6295" y2="30.7744" gradientUnits="userSpaceOnUse">
<stop stop-color="#1667C1"/>
<stop offset="1" stop-color="#1F7BE0"/>
</linearGradient>
</defs>
</svg>
