<svg width="95" height="117" viewBox="0 0 95 117" fill="none" xmlns="http://www.w3.org/2000/svg">
<path d="M93.59 98.1359L94.5166 106.468C83.6029 112.949 71.0934 116.189 56.988 116.189C38.5583 116.189 24.5043 110.943 14.8261 100.45C4.94205 90.1637 0 76.4308 0 59.2519C0 53.7999 0.566276 48.4508 1.69883 43.2045C2.83138 37.8554 4.78761 32.5577 7.56751 27.3114C10.4504 21.9623 14.0025 17.3332 18.2238 13.4243C22.5481 9.41241 28.1079 6.17207 34.9032 3.70324C41.6985 1.23441 49.3175 0 57.7602 0C69.1886 0 80.6171 2.726 92.0456 8.17799L91.119 16.8189C82.4704 6.84071 70.5786 1.85162 55.4436 1.85162C46.2802 1.85162 38.5068 4.57762 32.1233 10.0296C25.8428 15.3787 21.3126 22.168 18.5327 30.3974C15.7528 38.6269 14.3628 47.9364 14.3628 58.3261C14.3628 76.6365 18.4812 90.5237 26.7179 99.9875C34.8517 109.554 44.9417 114.338 56.988 114.338C72.3289 114.338 84.5296 108.937 93.59 98.1359Z" fill="white"/>
</svg>
