<svg width="384" height="471" viewBox="0 0 384 471" fill="none" xmlns="http://www.w3.org/2000/svg">
<path d="M379.389 397.817L383.145 431.594C338.904 457.865 288.194 471 231.014 471C156.305 471 99.3339 449.733 60.1012 407.199C20.0337 365.499 0 309.83 0 240.191C0 218.09 2.29553 196.406 6.88659 175.139C11.4777 153.456 19.4077 131.98 30.6766 110.713C42.363 89.0292 56.7622 70.2643 73.8744 54.4183C91.4039 38.1554 113.942 25.0199 141.488 15.0119C169.035 5.00399 199.92 0 234.144 0C280.472 0 326.8 11.0505 373.128 33.1514L369.372 68.1793C334.313 27.7304 286.107 7.50595 224.753 7.50595C187.608 7.50595 156.096 18.5564 130.219 40.6574C104.76 62.3413 86.3955 89.8632 75.1265 123.223C63.8575 156.583 58.223 194.321 58.223 236.438C58.223 310.664 74.9178 366.959 108.307 405.323C141.28 444.104 182.182 463.494 231.014 463.494C293.202 463.494 342.66 441.602 379.389 397.817Z" fill="white"/>
</svg>
