<svg width="142" height="187" viewBox="0 0 142 187" fill="none" xmlns="http://www.w3.org/2000/svg">
<path fill-rule="evenodd" clip-rule="evenodd" d="M25.4158 0H117.041C130.666 0 141.912 11.1739 141.912 24.8709V162.129C141.912 175.826 130.666 187 117.041 187H25.4158C11.7188 187 0.472809 175.826 0.472809 162.129V24.8709C0.472809 11.1739 11.7188 0 25.4158 0Z" fill="url(#paint0_linear)"/>
<path fill-rule="evenodd" clip-rule="evenodd" d="M25.4158 0H117.041C122.736 0 128.071 1.94641 132.324 5.26253C122.232 80.4518 70.3996 142.305 0.977435 166.959C0.689077 165.373 0.472809 163.787 0.472809 162.129V24.8709C0.472809 11.1739 11.7188 0 25.4158 0Z" fill="url(#paint1_linear)"/>
<path fill-rule="evenodd" clip-rule="evenodd" d="M79.9879 77.0637C86.476 65.5294 105.075 35.6843 98.587 25.5197C83.7366 2.16273 8.9798 92.4908 20.2258 117.362C24.4069 126.517 33.7786 125.652 50.0708 125.796C66.363 126.012 93.0361 121.182 93.0361 121.182C93.0361 121.182 81.5739 129.112 75.0137 131.203C68.4536 133.293 53.1706 136.826 34.2111 133.077C3.42891 126.95 8.25891 96.8162 22.6768 73.6755C32.6251 57.6716 55.2612 34.1704 73.644 23.0687C92.0268 11.9669 96.4964 15.4993 98.9474 16.5085C110.77 21.5548 107.021 32.2961 102.768 42.5328C97.6498 54.5718 90.0083 66.827 81.4297 78.5775C81.0692 79.0822 78.1857 80.3077 79.9879 77.0637Z" fill="white"/>
<path fill-rule="evenodd" clip-rule="evenodd" d="M95.1261 119.452C97.6492 128.103 96.1353 133.293 94.6215 139.709C93.0355 146.125 85.394 160.832 85.394 160.832L91.6658 161.192C95.7028 150.883 105.002 123.994 119.853 125.94C123.89 126.517 124.539 128.247 123.169 132.933C121.799 137.619 107.237 160.687 107.237 160.687C121.799 161.841 131.171 156.002 133.333 151.748C128.359 153.695 120.79 156.362 115.311 155.137C118.267 150.451 139.029 125.868 125.764 122.047C112.716 118.299 106.444 127.022 100.317 134.158C101.686 128.968 102.191 124.571 95.1261 119.452Z" fill="white"/>
<path fill-rule="evenodd" clip-rule="evenodd" d="M71.1925 126.084C73.8598 120.966 85.9708 102.439 82.1501 96.3836C73.5714 82.9029 33.2734 134.879 38.8243 147.135C41.1312 152.253 46.3216 151.748 55.2607 151.82C64.2719 151.965 79.0502 149.297 79.0502 149.297C79.0502 149.297 72.7064 153.695 69.1019 154.848C65.4253 156.002 56.9909 157.948 46.5379 155.857C29.5248 152.469 32.1921 135.817 40.194 123.057C45.6728 114.19 58.1443 101.214 68.3089 95.0139C78.4735 88.8863 80.9966 90.8327 82.2943 91.4094C88.8544 94.2209 86.8359 100.132 84.4569 105.755C81.5013 112.604 78.1852 118.299 73.211 125.075C72.6343 125.94 71.8413 125.219 71.1925 126.084Z" fill="white"/>
<path fill-rule="evenodd" clip-rule="evenodd" d="M25.3437 0H117.041C130.666 0 141.912 11.1739 141.912 24.8709V162.129C141.912 175.826 130.666 187 117.041 187H25.3437C11.7188 187 0.472809 175.826 0.472809 162.129V24.8709C0.472809 11.1739 11.7188 0 25.3437 0ZM25.3437 2.95567H117.041C129.08 2.95567 138.957 12.8319 138.957 24.8709V162.129C138.957 174.24 129.08 184.116 117.041 184.116H25.3437C13.3047 184.116 3.42848 174.24 3.42848 162.129V24.8709C3.42848 12.8319 13.3047 2.95567 25.3437 2.95567Z" fill="#3387DC"/>
<defs>
<linearGradient id="paint0_linear" x1="-5.9864" y1="170.696" x2="148.379" y2="16.3311" gradientUnits="userSpaceOnUse">
<stop stop-color="#107AEC"/>
<stop offset="1" stop-color="#04478F"/>
</linearGradient>
<linearGradient id="paint1_linear" x1="54.0389" y1="13.3812" x2="78.7576" y2="153.566" gradientUnits="userSpaceOnUse">
<stop stop-color="#1667C1"/>
<stop offset="1" stop-color="#1F7BE0"/>
</linearGradient>
</defs>
</svg>
